<?xml version="1.0" encoding="utf-8"?>
<!-- Generator: Adobe Illustrator 15.0.2, SVG Export Plug-In . SVG Version: 6.00 Build 0)  -->
<!DOCTYPE svg PUBLIC "-//W3C//DTD SVG 1.1//EN" "http://www.w3.org/Graphics/SVG/1.1/DTD/svg11.dtd">
<svg version="1.1" id="Layer_1" xmlns="http://www.w3.org/2000/svg" xmlns:xlink="http://www.w3.org/1999/xlink" x="0px" y="0px"
	 width="967px" height="1324.5px" viewBox="0 0 967 1324.5" enable-background="new 0 0 967 1324.5" xml:space="preserve">
<path fill="#FFFFFF" d="M966.297,548.961c0-5.915-2-6.654-9-7.394c-48-4.438-157-16.268-206-16.268c-131,0-203,26.619-268,26.619
	c-59,0-145-27.358-249-27.358c-77,0-199,12.569-219,12.569c-11,0.74-13,2.958-14,10.353c-0.786,5.227-0.953,16.376-0.989,25.938
	c0.25,3.897,0.52,7.792,0.784,11.688c0.883,1.881,2.675,3.343,6.206,3.777c14,3.697,21,10.353,24,21.442c3,17.006,18,73.2,30,96.121
	c26,45.844,101,61.37,153,61.37c142,0,184-58.413,217-121.262c11-23.66,23-45.843,52-45.843c39,0,40,23.661,52,45.843
	c43,85.029,90,122,213,122c94,0,147-22.182,169-87.248c7-21.442,13-43.625,18-65.807c3-11.83,11-24.4,26-24.4c3,0,6-1.479,6-5.914
	C967.297,572.623,967.297,560.792,966.297,548.961z M379.297,696.102c-50,54.715-115,60.63-170,60.63c-123,0-146-70.242-146-120.521
	c0-89.466,52-98.338,171-98.338c80,0,182,18.485,182,66.545C416.297,634.731,398.297,673.181,379.297,696.102z M752.297,756.73
	c-81,0-136-20.702-171-69.503c-19-28.098-28-65.065-28-82.812c0-48.061,80-65.067,179-65.067c127,0,170,18.485,170,76.896
	C902.297,709.41,877.297,756.73,752.297,756.73z"/>
<path fill="#FFFFFF" d="M647.741,1124.891c-2.044,0.384-4.074,0.826-6.089,1.331c-2.962,1.611-6.113,2.896-9.404,3.825
	c-2.86,1.654-5.849,2.938-8.912,3.856c-2.188,1.103-4.471,2.038-6.833,2.779c-2.624,1.513-5.386,2.802-8.293,3.768
	c-3.802,2.016-7.909,3.501-12.216,4.38c-3.854,1.16-7.908,1.82-12.084,1.898c-5.072,0.983-10.288,1.521-15.613,1.521
	c-40.977,0-75.87-30.536-82.883-69.743c-2.613-0.261-5.173-0.726-7.65-1.414c-0.802,0.225-1.616,0.413-2.435,0.594
	c-4.509,26.772-22.015,49.584-45.638,61.561c-7.724,5.515-15.873,8.223-24.198,8.689c-2.735,0.522-5.546,0.812-8.416,0.812
	c-2.357,0-4.675-0.192-6.942-0.553c-14.672-0.386-28.506-4.664-40.489-11.845c-0.528-0.181-1.055-0.368-1.575-0.567
	c-3.857-0.789-7.55-2.065-11.011-3.772c-2.231-0.405-4.409-0.979-6.522-1.701c-5.14-0.36-9.963-0.771-12.566-0.449
	c35.03,57.583,110.025,138.701,177.015,177.404c3.349-4.57,6.869-9.113,10.531-13.639c0.776-1.13,1.651-2.205,2.627-3.212
	c2.39-2.896,4.836-5.779,7.332-8.659c0.825-1.126,1.758-2.191,2.78-3.188c36.722-41.729,83.295-82.318,118.924-126.797
	c-0.102-0.412-0.179-0.832-0.269-1.248c1.359-0.51,2.262-1.579,2.694-2.836c0.549-0.302,1.086-0.624,1.623-0.944
	c0.58-0.779,1.187-1.541,1.812-2.283c1.609-2.337,3.463-4.413,5.575-6.07c0.104-0.084,0.209-0.174,0.314-0.258
	c1.825-2.972,3.991-5.717,6.422-8.201c1.028-1.965,2.193-3.851,3.485-5.643C655.144,1124.381,651.443,1124.566,647.741,1124.891z"/>
<path fill="#FFFFFF" d="M968.424,353.104c-4.229-8.73-6.979-18.265-7.931-28.261c-0.175-0.079-0.353-0.155-0.528-0.223
	c-0.665-7.608-1.656-15.174-3.161-22.641c-2.083-10.33-5.867-23.45-15.981-28.734c-9.94-5.192-21.187,0.304-29.519,6.059
	c-16.391,11.319-29.794,27.123-42.542,42.223c-0.178,0.21-0.328,0.426-0.466,0.644c-0.229-0.428-0.489-0.834-0.782-1.221
	c0.939-5.566,1.606-11.174,1.99-16.803c0.386-1.262,0.732-2.532,1.062-3.805c-0.097-0.598-0.119-1.209-0.081-1.814
	c-0.024-0.483-0.011-0.969,0.05-1.449c-0.086-0.685-0.085-1.381,0.004-2.065c-0.062-0.519-0.088-1.042-0.049-1.564
	c-0.728-2.206-0.74-4.673,0-6.876c-0.222-0.603-0.459-1.195-0.734-1.767c-0.354-8.396-1.303-16.775-2.827-25.06
	c-5.567-30.262-19.804-58.433-39.096-82.22c-3.155-3.89-8.095-0.467-8.266,3.58c0.413,1.145,0.811,2.297,1.174,3.462
	c0.008,0.01,0.014,0.02,0.021,0.029c0.201,0.248,0.396,0.5,0.594,0.75c-0.117,0.052-0.227,0.115-0.34,0.172
	c2.242,7.497,3.471,15.396,3.471,23.542c0,30.311-16.713,57.298-41.276,72.137c-4.883,4.071-10.244,7.497-16.034,10.068
	c1.557-2.009,2.389-4.354,2.621-6.79c1.121-1.982,2.153-4.021,3.069-6.135c5.462-12.609,6.112-26.556,5.592-40.103
	c-0.185-4.752-0.546-9.516-1.184-14.23c-0.152-2.669-0.319-5.322-0.477-7.947c-0.16-2.689-1.138-5.178-2.729-7.108
	c-1.175-3.867-2.634-7.651-4.463-11.311c-2.529-5.062-5.773-9.709-9.392-14.085c-1.185-2.066-2.66-3.912-4.527-5.385
	c-0.195-0.155-0.396-0.29-0.597-0.415c-3.729-3.978-7.663-7.761-11.524-11.464c-0.019-0.018-0.038-0.027-0.056-0.044
	c-0.123-0.118-0.251-0.22-0.386-0.303c-0.013-0.008-0.025-0.013-0.038-0.02c-0.118-0.07-0.239-0.133-0.365-0.179
	c-0.118-0.047-0.238-0.077-0.357-0.103c-0.007-0.001-0.014-0.003-0.021-0.005c-0.601-0.123-1.199,0.009-1.71,0.309
	c-0.062,0.034-0.122,0.07-0.182,0.108c-0.023,0.017-0.047,0.032-0.069,0.049c-0.631,0.431-1.077,1.102-1.104,1.88
	c-0.005,0.06,0.002,0.121,0.002,0.182c0.003,0.055,0,0.11,0.007,0.166c0.03,0.384,0.167,0.771,0.438,1.136
	c14.624,24.482,14.274,65.005-11.112,82.558c-5.065,3.502-11.134,5.563-17.487,6.688c-6.432,0.158-12.851,0.594-19.268,1.063
	c-1.825-0.073-3.616-0.183-5.352-0.318c-10.875-0.85-23.48-3.637-32.847-10.259c-0.141-0.139-0.281-0.275-0.42-0.415
	c-2.369-2.369-4.688-4.783-6.979-7.219c-0.074-0.175-0.165-0.34-0.245-0.513c-2.229-1.728-4.098-3.902-5.464-6.382
	c-0.394-0.486-0.765-0.987-1.111-1.507c-0.62-0.445-1.26-0.867-1.933-1.235c-23.399-26.709-43.112-56.536-63.404-85.613
	c-13.891-19.905-26.999-40.113-42.854-58.577c-14.577-16.975-30.979-32.413-49.34-45.235
	C449.062,19.571,409.706,8.32,369.727,12.649c-25.353,2.745-49.524,10.917-72.29,22.227c-0.339,0.054-0.667,0.129-1.002,0.191
	c-1.583,0.819-3.274,1.448-5.054,1.824c-1.888,1.259-3.977,2.225-6.22,2.795c-1.227,1.165-2.607,2.159-4.085,2.995
	c-1.22,1.005-2.566,1.853-3.992,2.557c-0.414,0.468-0.819,0.953-1.208,1.467c-13.266,7.96-25.985,16.809-38.104,26.039
	c-17.935,13.661-35.516,27.678-52.661,42.24c-0.896,0.364-1.755,0.803-2.582,1.292c-0.15,0.132-0.314,0.246-0.469,0.374
	c-1.433,1.782-3.16,3.313-5.098,4.538c-0.498,0.636-0.968,1.293-1.385,1.988c-6.742,5.866-13.412,11.824-20.004,17.887
	c-30.805,28.33-60.142,58.457-86.501,90.997c-4.854,4.317-8.945,9.61-12.25,15.576c-17.407,22.838-33.408,47.209-45.151,73.436
	c-4.584,7.913-8.369,16.059-11.261,24.024c-0.321,0.706-0.642,1.413-0.952,2.125c-2.17,5.001-2.884,10.35-1.733,15.164
	c-0.529,2.519-0.976,5.053-1.375,7.594c-0.095,0.021-0.187,0.05-0.282,0.071c-0.317,9.49-0.541,18.982-0.691,28.476
	c0.704,2.776,1.485,5.533,2.359,8.263c0.173,0.54,0.353,1.078,0.529,1.617c0.363,0.039,0.723,0.091,1.09,0.108
	c-0.32,4.034,4.897,7.802,8.475,4.084c67.228-69.842,143.476-134.631,230.729-177.988c34.635-17.211,71.826-30.768,110.218-36.417
	c10.191-0.483,20.38-1.119,30.469-2.584c0.399-0.058,0.8-0.124,1.199-0.183c21.462-0.503,42.698,2.169,63.462,7.71
	c23.108,6.167,44.711,17.396,65.268,29.389c44.956,26.228,85.745,58.797,128.363,88.507c15.096,10.522,30.78,20.204,46.021,30.528
	c16.096,10.903,32.291,21.715,49.369,31.034c28.279,15.433,65.911,30.354,95.869,10.646c17.173-11.298,27.391-31.208,33.42-50.276
	c0.729-2.308,1.387-4.633,2.011-6.965c2.032,2.048,6.074,2.619,8.383-0.412c8.346-10.961,18.547-19.86,32.307-21.307
	c4.447,12.37,7.09,25.208,8.692,38.268c1.519,12.369,2.27,24.923,5.276,37.056c2.792,11.253,8.281,21.514,16.593,29.646
	c6.036,5.904,13.222,10.444,20.87,14.113c0.79,0.107,1.579,0.227,2.365,0.356c4.296-0.444,8.59-0.621,12.909-0.686
	C970.032,406.418,968.952,379.771,968.424,353.104z"/>
</svg>
